<?xml version="1.0" standalone="no"?>
<!DOCTYPE svg PUBLIC "-//W3C//DTD SVG 20010904//EN"
 "http://www.w3.org/TR/2001/REC-SVG-20010904/DTD/svg10.dtd">
<svg version="1.0" xmlns="http://www.w3.org/2000/svg"
 width="260.000000pt" height="260.000000pt" viewBox="0 0 260.000000 260.000000"
 preserveAspectRatio="xMidYMid meet">
<metadata>
Created by potrace 1.14, written by Peter Selinger 2001-2017
</metadata>
<g transform="translate(0.000000,260.000000) scale(0.100000,-0.100000)"
fill="#000000" stroke="none">
<path d="M0 1300 l0 -1300 1300 0 1300 0 0 1300 0 1300 -1300 0 -1300 0 0
-1300z m1098 570 l3 -65 52 -25 52 -25 3 -62 c3 -67 -2 -73 -41 -49 -12 8 -32
17 -44 21 l-23 6 0 -129 0 -129 40 -28 c57 -40 83 -98 83 -194 1 -131 -56
-211 -164 -229 l-44 -7 -3 -63 -3 -62 -59 0 -60 0 0 65 c0 54 -3 67 -17 72
-10 3 -37 14 -60 25 l-43 20 0 74 0 75 33 -25 c17 -13 44 -29 60 -35 l27 -11
-1 138 0 137 -41 30 c-62 45 -83 94 -83 190 0 67 4 87 25 125 29 51 83 86 148
96 l42 6 0 65 0 64 58 -3 57 -3 3 -65z m-548 -40 l0 -50 -105 0 -105 0 0 -475
0 -475 105 0 105 0 0 -45 0 -45 -165 0 -165 0 0 570 0 570 165 0 165 0 0 -50z
m1820 -520 l0 -570 -165 0 -165 0 0 45 0 44 108 3 107 3 3 473 2 472 -110 0
-110 0 0 43 c0 24 3 47 7 50 3 4 78 7 165 7 l158 0 0 -570z m-751 196 l232
-139 -3 -70 -3 -71 -229 -138 c-126 -76 -234 -138 -238 -138 -5 0 -8 26 -6 57
l3 58 197 115 c108 63 195 118 193 121 -2 3 -92 56 -199 118 l-196 113 0 60
c0 33 4 58 9 56 4 -1 112 -66 240 -142z"/>
<path d="M925 1665 c-21 -20 -25 -34 -25 -80 0 -49 4 -60 29 -86 16 -16 34
-29 40 -29 7 0 11 38 11 110 0 122 -8 133 -55 85z"/>
<path d="M1010 1196 c0 -126 6 -138 48 -93 47 50 33 157 -25 195 l-23 14 0
-116z"/>
</g>
</svg>
